<?xml version="1.0" standalone="no"?>
<!DOCTYPE svg PUBLIC "-//W3C//DTD SVG 20010904//EN"
 "http://www.w3.org/TR/2001/REC-SVG-20010904/DTD/svg10.dtd">
<svg version="1.0" xmlns="http://www.w3.org/2000/svg"
 width="2000.000000pt" height="500.000000pt" viewBox="0 0 2000.000000 500.000000"
 preserveAspectRatio="xMidYMid meet">

<g transform="translate(0.000000,500.000000) scale(0.100000,-0.100000)"
fill="#000000" stroke="none">
<path d="M5205 4844 c-211 -34 -429 -155 -531 -296 -21 -29 -41 -55 -45 -58
-3 -3 -20 -32 -36 -65 -97 -188 -118 -393 -60 -580 26 -84 69 -273 87 -387 19
-123 78 -265 158 -381 20 -30 73 -108 118 -173 45 -66 102 -148 127 -184 26
-36 72 -103 104 -149 32 -46 73 -105 91 -130 17 -25 47 -68 66 -96 19 -27 91
-131 160 -230 l126 -180 0 -293 c0 -299 12 -447 44 -523 7 -19 19 -61 25 -94
39 -212 78 -371 106 -440 92 -228 254 -378 500 -461 73 -25 93 -27 235 -27
143 -1 161 2 235 27 278 94 464 288 536 558 21 79 23 105 26 592 l4 508 25 37
c13 20 51 74 84 121 34 47 76 108 95 135 19 28 53 77 76 110 23 33 64 92 90
130 27 39 92 131 144 205 52 74 111 158 129 185 19 28 58 84 88 127 29 42 80
115 113 163 33 47 71 104 85 127 14 23 31 43 37 45 9 3 13 -129 15 -549 l3
-553 28 -115 c58 -238 87 -366 87 -387 0 -38 67 -284 101 -368 67 -170 159
-331 278 -485 45 -58 235 -250 248 -250 3 0 28 -20 56 -43 79 -66 138 -104
271 -171 675 -344 1514 -198 2053 356 130 134 212 248 299 413 30 57 54 109
54 114 0 6 10 33 22 61 l22 50 23 -78 c13 -42 28 -102 34 -132 6 -30 24 -111
40 -180 16 -69 29 -135 29 -147 0 -31 52 -162 96 -240 50 -90 188 -227 274
-273 36 -19 101 -48 145 -64 75 -27 90 -28 230 -29 142 0 155 2 238 31 247 86
427 278 499 532 20 69 22 105 25 433 l4 357 213 0 212 0 11 -128 c6 -70 18
-149 28 -177 17 -47 43 -163 86 -375 67 -333 239 -541 534 -645 73 -26 92 -28
225 -29 139 0 149 1 240 33 52 18 107 42 122 52 14 11 29 19 32 19 3 0 33 20
65 45 153 117 252 279 296 488 13 58 15 284 15 1474 l0 1407 -24 105 c-30 132
-72 359 -86 471 -7 51 -23 109 -41 148 -16 36 -29 68 -29 72 0 20 -91 142
-150 201 -158 159 -355 237 -573 227 -122 -6 -191 -24 -316 -85 -106 -52 -204
-136 -276 -238 -56 -79 -81 -130 -117 -239 l-31 -91 -5 -342 -4 -343 -214 0
-214 0 0 55 c0 56 -18 161 -70 405 -16 74 -31 164 -33 200 -8 115 -88 300
-173 399 -104 121 -240 210 -389 254 -100 30 -301 30 -400 0 -85 -26 -173 -66
-234 -107 -75 -50 -183 -167 -229 -247 -53 -94 -102 -231 -102 -286 0 -23 -4
-45 -10 -48 -6 -3 -10 4 -10 17 0 51 -42 187 -80 264 -104 209 -298 362 -525
414 -163 38 -351 17 -495 -55 -224 -113 -364 -288 -426 -532 l-24 -96 0 -926
c0 -579 -4 -939 -10 -962 -25 -90 -170 -149 -272 -110 l-28 10 -2 753 -3 753
-27 120 c-39 173 -65 307 -79 410 -20 153 -99 305 -218 425 -107 107 -208 165
-356 206 -96 26 -284 26 -375 1 -275 -78 -467 -260 -553 -522 -15 -44 -30
-100 -33 -125 l-7 -44 -27 104 c-41 160 -101 268 -210 379 -196 200 -488 282
-745 209 -205 -58 -338 -153 -470 -338 -37 -52 -76 -106 -86 -120 -10 -14 -44
-61 -74 -105 -31 -44 -73 -103 -93 -131 -20 -28 -60 -85 -88 -125 -28 -41 -61
-82 -72 -92 -19 -18 -21 -17 -68 50 -27 37 -56 77 -64 89 -40 59 -127 183
-154 220 -17 23 -49 68 -71 99 -163 236 -232 305 -387 388 -124 67 -328 109
-443 91z m244 -150 c79 -20 187 -74 248 -122 60 -48 125 -127 249 -306 49 -70
131 -187 182 -260 51 -72 112 -160 137 -196 25 -36 60 -87 79 -114 l34 -48 26
38 c14 22 44 64 66 94 22 30 63 89 91 130 88 126 297 421 356 503 102 141 214
223 371 275 168 54 374 22 531 -82 185 -123 301 -333 301 -546 0 -167 -42
-263 -237 -544 -81 -116 -164 -236 -185 -266 -20 -30 -50 -73 -66 -95 -16 -22
-122 -175 -237 -340 -115 -165 -221 -318 -237 -340 -16 -22 -46 -65 -68 -96
l-39 -56 -3 -529 c-4 -508 -5 -532 -25 -599 -70 -227 -236 -390 -466 -458
-103 -30 -254 -29 -361 2 -217 63 -393 231 -456 433 -39 126 -43 199 -35 678
l7 455 -118 170 c-131 189 -123 178 -304 435 -72 102 -155 221 -185 265 -31
44 -96 139 -146 210 -264 382 -290 429 -310 558 -17 108 -6 262 24 337 80 197
229 340 418 400 127 41 235 45 358 14z m3786 -17 c203 -71 342 -215 418 -430
21 -62 21 -70 27 -1042 6 -1099 -1 -1011 81 -1100 52 -56 113 -89 196 -105
153 -30 320 59 385 207 10 22 14 254 18 1013 l5 985 26 67 c79 202 227 346
426 411 97 31 269 31 366 0 223 -73 394 -263 447 -496 14 -65 15 -2021 0
-2112 -17 -108 -57 -261 -91 -348 -123 -319 -355 -600 -647 -780 -180 -112
-306 -164 -519 -219 -127 -32 -131 -32 -363 -32 -230 0 -238 0 -360 31 -433
109 -758 343 -1017 733 -50 75 -129 249 -168 368 -69 214 -68 179 -72 1276 -3
901 -2 998 13 1075 29 146 99 269 206 365 76 68 168 118 268 145 103 29 254
24 355 -12z m3469 13 c164 -42 308 -151 396 -298 81 -138 83 -152 88 -614 l3
-408 399 0 399 0 3 408 c4 357 6 414 22 461 71 216 217 369 420 438 70 24 96
28 196 28 174 0 282 -41 416 -157 102 -88 168 -198 203 -337 21 -84 21 -91 21
-1501 0 -1382 0 -1419 -20 -1496 -32 -129 -82 -217 -174 -309 -165 -164 -373
-227 -581 -175 -134 33 -215 79 -313 177 -70 70 -91 99 -127 176 -24 51 -47
108 -51 127 -4 19 -9 221 -11 448 l-4 412 -400 0 -399 0 0 -384 c0 -436 -6
-488 -66 -607 -86 -173 -223 -288 -409 -345 -85 -26 -246 -24 -338 4 -220 67
-395 256 -445 479 -16 72 -17 183 -17 1498 0 1313 1 1425 17 1491 56 228 225
411 443 478 104 32 221 34 329 6z"/>
</g>
</svg>
